<?xml version="1.0" encoding="utf-8"?>
<svg xmlns="http://www.w3.org/2000/svg" xmlns:xlink="http://www.w3.org/1999/xlink" version= "1.1" width="1440px" height="1200px" viewBox="-360 112 1440 1200">
<g id="layer1">
<g style="fill:rgb(89,184,197); fill-opacity:1.0; stroke-linejoin: miter">
<path d="M-360.001,110.67221C-360.3529,110.67221,-360.69037,110.812,-360.93918,111.06082C-361.188,111.30965,-361.3278,111.64711,-361.3278,111.999L-361.32678,1312.0C-361.32678,1312.7328,-360.73276,1313.3268,-360.0,1313.3268L1080.001,1313.3278C1080.3529,1313.3278,1080.6904,1313.188,1080.9392,1312.9392C1081.188,1312.6904,1081.3278,1312.3529,1081.3278,1312.001L1081.3268,112.0C1081.3268,111.267235,1080.7328,110.67321,1080.0,110.67321L-360.001,110.67221 Z"/>
</g>
</g>
<g id="layer2">
<g style="fill:rgb(0,0,0); fill-opacity:1.0; stroke-linejoin: miter">
<path d="M-129.72711,356.02454L-130.01224,360.26276Q-132.03935,373.07104,-141.87488,380.75037Q-151.77844,388.42346,-165.19914,386.9732Q-178.00748,384.9461,-185.68677,375.11057Q-188.14731,371.93127,-189.74022,368.18213L-191.07903,364.3277Q-192.18233,360.3494,-192.19473,356.02454Q-191.8598,342.75214,-183.04655,333.93887Q-174.2333,325.12564,-160.9609,324.7907Q-147.68852,325.12564,-138.87527,333.93887Q-130.06204,342.75214,-129.72711,356.02454"/>
</g>
<g style="fill:rgb(0,0,0); fill-opacity:0.5019608; stroke-linejoin: miter">
<path d="M971.7087,1186.9604L966.13324,1188.8268Q926.494,1194.4668,734.1655,1197.8484Q540.5061,1201.2273,278.07108,1200.5886Q27.611057,1199.696,-122.55354,1195.3649Q-170.66792,1193.965,-201.81662,1192.314L-227.99628,1190.6167Q-249.57071,1188.8649,-249.81326,1186.9604Q-243.26389,1181.116,-70.92553,1177.2351Q101.41292,1173.3541,360.94772,1173.2067Q620.4826,1173.3541,792.82086,1177.2351Q965.15936,1181.116,971.7087,1186.9604"/>
</g>
<g>
<g style="fill:rgb(0,0,0); fill-opacity:1.0; stroke-linejoin: miter">
<path d="M533.0432,1001.7062L606.54486,1001.70667L680.04675,1001.7073Q680.04675,1094.5446,680.04675,1187.3812Q606.54486,1187.3816,533.0431,1187.3821Q533.0432,1094.5441,533.0432,1001.7062 Z"/>
</g>
<g style="fill:rgb(0,0,0); fill-opacity:1.0; stroke-linejoin: miter">
<path d="M265.02246,599.26166L607.62085,599.2625L950.21924,599.2631Q950.2192,822.046,950.2192,1044.829Q607.62067,1044.8291,265.02225,1044.8296Q265.02237,822.04565,265.02246,599.26166 Z"/>
</g>
<g style="fill:rgb(255,255,255); fill-opacity:1.0; stroke-linejoin: miter">
<path d="M282.40985,619.3709L607.62085,619.37164L932.83185,619.37225Q932.8318,820.8363,932.8318,1022.30054Q607.62067,1022.30054,282.4096,1022.3009Q282.40973,820.8358,282.40985,619.3709 Z"/>
</g>
<g style="fill:rgb(0,0,0); fill-opacity:1.0; stroke-linejoin: miter">
<path d="M427.42453,1167.0463L606.54486,1167.0474L785.66516,1167.0482Q785.66516,1181.2998,785.66516,1195.5514Q606.54486,1195.5518,427.42447,1195.5525Q427.42447,1181.2994,427.42453,1167.0463 Z"/>
</g>
<g style="fill:rgb(255,255,255); fill-opacity:1.0; stroke-linejoin: miter">
<path d="M716.3024,495.22083L716.3024,495.22095L716.3024,495.22107L716.3024,495.22095L716.3024,495.22083L716.3024,495.22095L716.3024,495.22107Q716.3024,495.22095,716.3024,495.22083 Z"/>
</g>
<g style="fill:rgb(230,230,230); fill-opacity:1.0; stroke-linejoin: miter">
<path d="M332.696,861.8196L463.02554,861.82043L463.02554,880.4607L332.696,880.4614L332.696,861.8196 Z M332.696,861.8196L463.02554,861.82043L463.02554,880.4607L332.696,880.4614L332.696,861.8196 Z M332.696,861.8196L463.02554,861.82043L463.02554,880.4607L332.696,880.4614L332.696,861.8196 Z M332.696,861.8196L463.02554,861.82043L463.02554,880.4607L332.696,880.4614L332.696,861.8196 Z"/>
</g>
<g style="fill:rgb(230,230,230); fill-opacity:1.0; stroke-linejoin: miter">
<path d="M332.696,898.9436L432.06238,898.94446L432.06238,917.58484L332.696,917.5857L332.696,898.9436 Z M332.696,898.9436L432.06238,898.94446L432.06238,917.58484L332.696,917.5857L332.696,898.9436 Z M332.696,898.9436L432.06238,898.94446L432.06238,917.58484L332.696,917.5857L332.696,898.9436 Z M332.696,898.9436L432.06238,898.94446L432.06238,917.58484L332.696,917.5857L332.696,898.9436 Z"/>
</g>
<g style="fill:rgb(230,230,230); fill-opacity:1.0; stroke-linejoin: miter">
<path d="M332.69598,930.06494L463.0255,930.0657L463.0255,948.70593L332.69598,948.7068L332.69598,930.06494 Z M332.69598,930.06494L463.0255,930.0657L463.0255,948.70593L332.69598,948.7068L332.69598,930.06494 Z M332.69598,930.06494L463.0255,930.0657L463.0255,948.70593L332.69598,948.7068L332.69598,930.06494 Z M332.69598,930.06494L463.0255,930.0657L463.0255,948.70593L332.69598,948.7068L332.69598,930.06494 Z"/>
</g>
<g style="fill:rgb(230,230,230); fill-opacity:1.0; stroke-linejoin: miter">
<path d="M332.69598,967.34705L463.0255,967.3478L463.0255,979.827L332.69598,979.82776L332.69598,967.34705 Z M332.69598,967.34705L463.0255,967.3478L463.0255,979.827L332.69598,979.82776L332.69598,967.34705 Z M332.69598,967.34705L463.0255,967.3478L463.0255,979.827L332.69598,979.82776L332.69598,967.34705 Z M332.69598,967.34705L463.0255,967.3478L463.0255,979.827L332.69598,979.82776L332.69598,967.34705 Z"/>
</g>
<g style="fill:rgb(230,230,230); fill-opacity:1.0; stroke-linejoin: miter">
<path d="M481.50858,898.9436L580.875,898.94446L580.875,917.58484L481.50858,917.5857L481.50858,898.9436 Z M481.50858,898.9436L580.875,898.94446L580.875,917.58484L481.50858,917.5857L481.50858,898.9436 Z M481.50858,898.9436L580.875,898.94446L580.875,917.58484L481.50858,917.5857L481.50858,898.9436 Z M481.50858,898.9436L580.875,898.94446L580.875,917.58484L481.50858,917.5857L481.50858,898.9436 Z"/>
</g>
<g style="fill:rgb(230,230,230); fill-opacity:1.0; stroke-linejoin: miter">
<path d="M481.50854,930.06494L611.8381,930.0657L611.8381,948.70593L481.50854,948.7068L481.50854,930.06494 Z M481.50854,930.06494L611.8381,930.0657L611.8381,948.70593L481.50854,948.7068L481.50854,930.06494 Z M481.50854,930.06494L611.8381,930.0657L611.8381,948.70593L481.50854,948.7068L481.50854,930.06494 Z M481.50854,930.06494L611.8381,930.0657L611.8381,948.70593L481.50854,948.7068L481.50854,930.06494 Z"/>
</g>
<g style="fill:rgb(230,230,230); fill-opacity:1.0; stroke-linejoin: miter">
<path d="M481.50854,967.34705L611.8381,967.3478L611.8381,979.827L481.50854,979.82776L481.50854,967.34705 Z M481.50854,967.34705L611.8381,967.3478L611.8381,979.827L481.50854,979.82776L481.50854,967.34705 Z M481.50854,967.34705L611.8381,967.3478L611.8381,979.827L481.50854,979.82776L481.50854,967.34705 Z M481.50854,967.34705L611.8381,967.3478L611.8381,979.827L481.50854,979.82776L481.50854,967.34705 Z"/>
</g>
<g style="fill:rgb(255,255,255); fill-opacity:1.0; stroke-linejoin: miter">
<path d="M847.90717,719.2867C842.76105,719.2867,837.07684,715.07623,837.07684,709.9301L837.0769,621.0429L932.1159,719.2867L847.90717,719.2878 Z"/>
</g>
<g style="fill:rgb(230,230,230); fill-opacity:1.0; stroke-linejoin: miter">
<path d="M682.67065,817.5303L888.5144,817.531L888.5144,826.88696L682.67065,826.8877L682.67065,817.5303 Z M682.67065,817.5303L888.5144,817.531L888.5144,826.88696L682.67065,826.8877L682.67065,817.5303 Z M682.67065,817.5303L888.5144,817.531L888.5144,826.88696L682.67065,826.8877L682.67065,817.5303 Z M682.67065,817.5303L888.5144,817.531L888.5144,826.88696L682.67065,826.8877L682.67065,817.5303 Z"/>
</g>
<g style="fill:rgb(179,179,179); fill-opacity:1.0; stroke-linejoin: miter">
<path d="M682.67065,836.2434L851.0884,836.24426L851.0884,840.92163L682.67065,840.92236L682.67065,836.2434 Z M682.67065,836.2434L851.0884,836.24426L851.0884,840.92163L682.67065,840.92236L682.67065,836.2434 Z M682.67065,836.2434L851.0884,836.24426L851.0884,840.92163L682.67065,840.92236L682.67065,836.2434 Z M682.67065,836.2434L851.0884,836.24426L851.0884,840.92163L682.67065,840.92236L682.67065,836.2434 Z"/>
</g>
<g style="fill:rgb(179,179,179); fill-opacity:1.0; stroke-linejoin: miter">
<path d="M734.13165,939.1654L883.8362,939.16626L883.8362,943.8436L734.13165,943.84436L734.13165,939.1654 Z M734.13165,939.1654L883.8362,939.16626L883.8362,943.8436L734.13165,943.84436L734.13165,939.1654 Z M734.13165,939.1654L883.8362,939.16626L883.8362,943.8436L734.13165,943.84436L734.13165,939.1654 Z M734.13165,939.1654L883.8362,939.16626L883.8362,943.8436L734.13165,943.84436L734.13165,939.1654 Z"/>
</g>
<g style="fill:rgb(179,179,179); fill-opacity:1.0; stroke-linejoin: miter">
<path d="M734.13165,953.2002L883.8362,953.2009L883.8362,957.87866L734.13165,957.8793L734.13165,953.2002 Z M734.13165,953.2002L883.8362,953.2009L883.8362,957.87866L734.13165,957.8793L734.13165,953.2002 Z M734.13165,953.2002L883.8362,953.2009L883.8362,957.87866L734.13165,957.8793L734.13165,953.2002 Z M734.13165,953.2002L883.8362,953.2009L883.8362,957.87866L734.13165,957.8793L734.13165,953.2002 Z"/>
</g>
<g style="fill:rgb(179,179,179); fill-opacity:1.0; stroke-linejoin: miter">
<path d="M734.13165,981.2699L883.8362,981.2706L883.8362,985.9481L734.13165,985.949L734.13165,981.2699 Z M734.13165,981.2699L883.8362,981.2706L883.8362,985.9481L734.13165,985.949L734.13165,981.2699 Z M734.13165,981.2699L883.8362,981.2706L883.8362,985.9481L734.13165,985.949L734.13165,981.2699 Z M734.13165,981.2699L883.8362,981.2706L883.8362,985.9481L734.13165,985.949L734.13165,981.2699 Z"/>
</g>
<g style="fill:rgb(179,179,179); fill-opacity:1.0; stroke-linejoin: miter">
<path d="M734.13165,995.3048L883.8362,995.3054L883.8362,999.98303L734.13165,999.9839L734.13165,995.3048 Z M734.13165,995.3048L883.8362,995.3054L883.8362,999.98303L734.13165,999.9839L734.13165,995.3048 Z M734.13165,995.3048L883.8362,995.3054L883.8362,999.98303L734.13165,999.9839L734.13165,995.3048 Z M734.13165,995.3048L883.8362,995.3054L883.8362,999.98303L734.13165,999.9839L734.13165,995.3048 Z"/>
</g>
<g style="fill:rgb(179,179,179); fill-opacity:1.0; stroke-linejoin: miter">
<path d="M682.67065,850.2782L879.1579,850.27893L879.1579,854.9564L682.67065,854.95715L682.67065,850.2782 Z M682.67065,850.2782L879.1579,850.27893L879.1579,854.9564L682.67065,854.95715L682.67065,850.2782 Z M682.67065,850.2782L879.1579,850.27893L879.1579,854.9564L682.67065,854.95715L682.67065,850.2782 Z M682.67065,850.2782L879.1579,850.27893L879.1579,854.9564L682.67065,854.95715L682.67065,850.2782 Z"/>
</g>
<g style="fill:rgb(179,179,179); fill-opacity:1.0; stroke-linejoin: miter">
<path d="M682.67065,864.3131L794.94904,864.31384L794.94904,868.99133L682.67065,868.99207L682.67065,864.3131 Z M682.67065,864.3131L794.94904,864.31384L794.94904,868.99133L682.67065,868.99207L682.67065,864.3131 Z M682.67065,864.3131L794.94904,864.31384L794.94904,868.99133L682.67065,868.99207L682.67065,864.3131 Z M682.67065,864.3131L794.94904,864.31384L794.94904,868.99133L682.67065,868.99207L682.67065,864.3131 Z"/>
</g>
<g style="fill:rgb(146,159,168); fill-opacity:1.0; stroke-linejoin: miter">
<path d="M656.439,645.64825L776.5648,645.6488L896.6905,645.6493Q896.6905,709.8063,896.6905,773.96313Q776.5648,773.9637,656.439,773.9642Q656.439,709.8063,656.439,645.64825"/>
</g>
</g>
<g style="fill:rgb(81,101,107); fill-opacity:1.0; stroke-linejoin: miter">
<path d="M151.708,547.3317C147.42581,547.3317,144.57132,544.47723,144.57132,540.1951L144.57132,518.78424C144.57132,514.5021,147.42581,511.64755,151.708,511.64755C155.99011,511.64755,158.84467,514.5021,158.84467,518.78424L158.84467,540.1951C158.84552,544.47723,155.99017,547.3317,151.708,547.3317 Z"/>
</g>
<g style="fill:rgb(81,101,107); fill-opacity:1.0; stroke-linejoin: miter">
<path d="M151.70798,590.1534C136.00693,590.1534,123.16048,577.3068,123.16048,561.6059C123.16048,557.3238,126.01497,554.4692,130.29709,554.4692C134.57925,554.4692,137.43375,557.3238,137.43375,561.6059C137.43375,569.4568,143.85703,575.88,151.70792,575.88C159.55882,575.88,165.9821,569.4568,165.98212,561.6059C165.98212,553.75494,159.55884,547.3317,151.70793,547.3317C147.42575,547.3317,144.57126,544.47723,144.57126,540.1951C144.57126,535.9129,147.42575,533.0584,151.70793,533.0584C167.409,533.0584,180.2555,545.90497,180.2555,561.606C180.25635,577.3068,167.40985,590.1534,151.70798,590.1534 Z"/>
</g>
<g style="fill:rgb(44,60,66); fill-opacity:1.0; stroke-linejoin: miter">
<path d="M165.98218,518.78424L137.43466,518.7851L137.43466,510.21988C137.43466,497.3734,142.4302,485.2403,151.70879,475.9626C160.98657,485.2403,165.98297,497.3734,165.98297,510.21988L165.98297,518.78424 Z"/>
</g>
<g style="fill:rgb(81,101,107); fill-opacity:1.0; stroke-linejoin: miter">
<path d="M151.708,483.0993C147.42581,483.0993,144.57132,480.24475,144.57132,475.9626L144.57132,390.31924C144.57132,386.03708,147.42581,383.1826,151.708,383.1826C155.9901,383.1826,158.84465,386.03708,158.84465,390.31924L158.84467,475.9626C158.84552,480.24475,155.99017,483.0993,151.708,483.0993 Z"/>
</g>
<g style="fill:rgb(53,89,113); fill-opacity:1.0; stroke-linejoin: miter">
<path d="M-119.495575,383.1826L-105.221405,383.18344L-105.221405,326.08676L-119.495575,326.08762L-119.495575,383.1826 Z M-98.08472,397.4559L-126.63312,397.45676C-130.91525,397.45587,-133.76974,394.60144,-133.76974,390.3192L-133.76974,318.95016C-133.76974,314.66794,-130.91525,311.81345,-126.63312,311.81348L-98.08557,311.81433C-93.8034,311.81348,-90.948875,314.66797,-90.948875,318.9502L-90.948875,390.31924C-90.94808,394.60147,-93.802574,397.4559,-98.08472,397.4559L-98.08472,397.45676 Z"/>
</g>
<g>
<g style="fill:rgb(53,89,113); fill-opacity:1.0; stroke-linejoin: miter">
<path d="M-90.94818,654.3858L-33.852276,654.38666L-33.85226,320.37695L-55.263123,254.71681L-68.82303,254.71767L-90.9473,320.37695L-90.94733,654.3858 Z M-26.715595,668.6599L-98.08482,668.66077C-102.36702,668.6599,-105.22151,665.8054,-105.22151,661.5233L-105.22148,318.9502C-105.22148,318.23676,-105.22148,317.52252,-104.50807,316.80908L-80.95613,245.43996C-80.24272,242.58466,-77.38823,240.44354,-74.53285,240.44354L-50.98092,240.4444C-48.126427,240.44354,-45.27111,242.58466,-44.5577,245.4391L-21.005726,316.80823C-21.005726,317.52167,-20.292316,318.2359,-20.292316,318.94934L-20.292332,661.52246C-19.578953,665.8054,-22.433445,668.6599,-26.715595,668.6599L-26.715595,668.66077 Z"/>
</g>
<g style="fill:rgb(53,89,113); fill-opacity:1.0; stroke-linejoin: miter">
<path d="M-98.08482,668.6599C-100.22591,668.6599,-101.65361,667.94653,-103.0804,666.5188C-105.93492,663.6643,-105.22151,659.3822,-102.36699,656.52686L-37.421032,598.0042L-102.36702,545.90497C-104.5081,544.47723,-105.22151,542.33624,-105.22151,540.1951C-105.22151,538.054,-104.5081,535.9129,-102.36702,534.4853L-38.134434,483.09933L-102.36699,431.71323C-104.50807,430.2856,-105.22148,428.1445,-105.22148,426.0034C-105.22148,423.86234,-104.50807,421.72128,-102.36699,420.2936L-30.997772,363.19778C-28.14328,361.05667,-23.14684,361.05667,-21.005726,364.62546C-18.864704,367.4799,-18.864704,372.4763,-22.43343,374.61746L-86.66596,426.0034L-23.146847,477.3895C-21.719173,478.81717,-20.292355,480.95822,-20.292355,483.09933C-20.292355,485.2404,-21.005764,487.38144,-23.146847,488.8091L-86.665985,540.1951L-23.146854,591.58105C-21.719181,593.0087,-20.292362,595.1498,-20.292362,597.2909C-20.292362,599.43195,-21.005772,601.57306,-22.433445,603.00073L-93.08923,667.23315C-94.51691,667.94653,-96.658005,668.6599,-98.08482,668.6599 Z"/>
</g>
<g style="fill:rgb(53,89,113); fill-opacity:1.0; stroke-linejoin: miter">
<path d="M-26.715595,668.6599C-28.1433,668.6599,-30.284382,667.94653,-31.71117,666.5188L-103.08046,602.28644C-104.5081,600.85876,-105.22151,599.43195,-105.22151,597.2909C-105.22151,595.1498,-104.5081,593.0087,-102.36702,591.58105L-38.134434,540.1951L-102.367004,488.8091C-104.50809,487.38144,-105.2215,485.2404,-105.2215,483.09933C-105.2215,480.95822,-104.50809,478.81717,-102.367004,477.3895L-38.134434,426.0034L-102.36699,374.61746C-105.22148,372.47635,-105.935715,367.4808,-103.79466,364.62546C-101.65358,361.77097,-96.65801,361.05667,-93.80265,363.19778L-23.146847,420.29355C-21.719173,421.72128,-20.292355,423.86227,-20.292355,426.0034C-20.292355,428.1445,-21.005733,430.28555,-23.146847,431.71323L-86.66597,483.09933L-23.146847,534.4853C-21.719173,535.9129,-20.292355,538.054,-20.292355,540.1951C-20.292355,542.3361,-21.005764,544.47723,-23.146847,545.90497L-86.665985,597.29083L-21.720005,655.8135C-18.865543,658.66785,-18.865543,662.9501,-21.006596,665.8054C-22.433445,667.94653,-24.574528,668.6599,-26.715595,668.6599 Z"/>
</g>
<g style="fill:rgb(53,89,113); fill-opacity:1.0; stroke-linejoin: miter">
<path d="M-98.08479,376.04507C-100.225876,376.04507,-102.36696,375.33163,-103.79466,373.19064C-105.935715,369.62186,-105.222305,365.3397,-102.36696,363.19864L-30.997742,313.24036C-27.429016,311.09924,-23.14684,311.81268,-21.005726,314.66797C-18.864643,318.2367,-19.578083,322.51886,-22.43343,324.65994L-93.80265,374.61826C-95.23029,375.33163,-96.65798,376.04507,-98.08479,376.04507 Z"/>
</g>
<g style="fill:rgb(53,89,113); fill-opacity:1.0; stroke-linejoin: miter">
<path d="M-26.715576,376.04507C-28.14328,376.04507,-29.570099,375.33163,-30.997742,374.6174L-102.36696,324.6591C-105.935715,322.51807,-106.649155,318.2359,-103.79466,314.6671C-101.65358,311.0984,-97.37138,310.38495,-93.80265,313.2395L-22.43343,363.19778C-18.864643,365.33878,-18.151264,369.62094,-21.005726,373.1898C-22.43343,375.33163,-24.574512,376.04507,-26.715576,376.04507 Z"/>
</g>
</g>
<g style="fill:rgb(53,89,113); fill-opacity:1.0; stroke-linejoin: miter">
<path d="M-19.578861,383.18253L204.52173,383.18344L175.97415,326.08673L-19.578861,326.08755L-19.578861,383.18253 Z M215.94055,397.4559L-26.7155,397.45676C-30.997665,397.4559,-33.852184,394.60147,-33.852184,390.31924L-33.852184,318.9502C-33.852184,314.66797,-30.997696,311.81348,-26.7155,311.81348L180.25633,311.8143C183.11084,311.81345,185.25195,313.24118,186.67957,316.0956L222.36462,387.46475C223.7923,389.6058,223.078,392.46036,222.36462,394.60147C220.93689,396.02908,218.0816,397.4559,215.94055,397.4559L215.94055,397.45676 Z"/>
</g>
<g style="fill:rgb(44,60,66); fill-opacity:1.0; stroke-linejoin: miter">
<path d="M-155.18059,404.59338L-119.495575,404.59427L-119.495575,304.67596L-155.18059,304.67682L-155.18059,404.59338 Z"/>
</g>
<g style="fill:rgb(53,89,113); fill-opacity:1.0; stroke-linejoin: miter">
<path d="M151.708,397.4559C149.56686,397.4559,147.42581,396.74252,145.99814,394.60147L94.612076,330.36896L43.22603,394.6014C40.371536,398.17014,34.66172,398.17014,31.80717,394.6014L-25.2887,323.23233C-27.429794,320.3778,-27.429794,315.3814,-23.861027,313.24036C-21.006535,311.09924,-16.010103,311.09918,-13.869051,314.6679L37.517044,378.90042L88.90302,314.66794C91.75758,311.0992,97.467384,311.0992,100.321884,314.66794L157.41777,386.03714C159.55882,388.89163,159.55882,393.88803,155.9901,396.02914C155.27672,396.74252,153.13567,397.4559,151.708,397.4559 Z"/>
</g>
<g style="fill:rgb(53,89,113); fill-opacity:1.0; stroke-linejoin: miter">
<path d="M-19.578861,397.45584C-21.006504,397.4559,-22.433353,396.74252,-23.860996,396.0283C-26.7155,393.88718,-27.429794,388.89163,-25.28867,386.03622L31.807175,314.66705C34.661728,311.09833,40.37154,311.09833,43.226032,314.66705L94.61207,378.89963L145.99814,314.66708C148.13925,311.81265,153.13481,311.09836,155.9901,313.23947C158.84465,315.38052,159.55888,320.37607,157.41783,323.23145L100.32191,394.60062C97.467415,398.16934,91.757576,398.16934,88.903114,394.60062L37.517044,330.368L-13.86899,394.60056C-15.296663,396.74246,-17.437778,397.45584,-19.578861,397.45584 Z"/>
</g>
<g style="fill:rgb(53,89,113); fill-opacity:1.0; stroke-linejoin: miter">
<path d="M151.708,397.4559C150.28032,397.4559,148.13925,396.74252,147.42581,396.0283C144.57132,393.17374,143.85703,388.89163,146.71237,386.03622L186.67957,338.219C189.53406,335.36444,193.81622,334.65027,196.67157,337.50555C199.52606,340.3601,200.24036,344.64227,197.38495,347.49756L157.41783,395.31485C155.99016,396.74252,153.8491,397.4559,151.708,397.4559 Z"/>
</g>
<g>
<g style="fill:rgb(53,89,113); fill-opacity:1.0; stroke-linejoin: miter">
<path d="M-90.94801,672.89716L-33.852116,672.89636L-33.852345,1006.90607L-55.263252,1072.5662L-68.82316,1072.5654L-90.94738,1006.90607L-90.94716,672.89716 Z M-26.715427,658.6231L-98.084656,658.6222C-102.36685,658.62305,-105.221344,661.47754,-105.221344,665.75964L-105.221565,1008.33276C-105.221565,1009.0462,-105.221565,1009.76044,-104.508156,1010.4739L-80.956276,1081.843C-80.24287,1084.6982,-77.388374,1086.8394,-74.533,1086.8394L-50.981064,1086.8385C-48.126575,1086.8394,-45.27125,1084.6982,-44.557842,1081.8439L-21.005802,1010.4748C-21.005802,1009.76135,-20.292393,1009.0471,-20.292393,1008.3337L-20.292156,665.76056C-19.578777,661.4776,-22.43327,658.6231,-26.715427,658.6231L-26.715427,658.62225 Z"/>
</g>
<g style="fill:rgb(53,89,113); fill-opacity:1.0; stroke-linejoin: miter">
<path d="M-98.084656,658.62305C-100.22574,658.62305,-101.65344,659.3364,-103.08023,660.76416C-105.93475,663.61865,-105.221344,667.90076,-102.36682,670.7561L-37.42091,729.2788L-102.36693,781.378C-104.50801,782.8057,-105.221436,784.9467,-105.221436,787.08777C-105.221436,789.2289,-104.508026,791.37,-102.36694,792.79767L-38.134396,844.1837L-102.36702,895.5697C-104.5081,896.9973,-105.22151,899.1384,-105.22151,901.27954C-105.22151,903.4206,-104.5081,905.56165,-102.36702,906.9893L-30.99783,964.0852C-28.143337,966.2263,-23.146885,966.2263,-21.005764,962.65753C-18.864742,959.8031,-18.864742,954.8067,-22.433468,952.6655L-86.665985,901.2796L-23.146801,849.89355C-21.719128,848.4659,-20.292309,846.3248,-20.292309,844.1837C-20.292309,842.04266,-21.00571,839.9016,-23.146793,838.47394L-86.66591,787.08777L-23.146732,735.70197C-21.719059,734.2743,-20.29224,732.13324,-20.292233,729.9921C-20.292233,727.8511,-21.005642,725.70996,-22.433315,724.2823L-93.089066,660.0498C-94.51674,659.3364,-96.65784,658.62305,-98.084656,658.62305 Z"/>
</g>
<g style="fill:rgb(53,89,113); fill-opacity:1.0; stroke-linejoin: miter">
<path d="M-26.715427,658.6231C-28.143131,658.6231,-30.284214,659.3365,-31.711002,660.7642L-103.08034,724.9965C-104.50798,726.4242,-105.22139,727.851,-105.22139,729.99207C-105.22139,732.1332,-104.50798,734.27423,-102.3669,735.7019L-38.134357,787.0878L-102.366974,838.4739C-104.50806,839.90155,-105.221466,842.0426,-105.221466,844.18365C-105.221466,846.32477,-104.50807,848.4658,-102.36699,849.8935L-38.134434,901.2796L-102.36704,952.66547C-105.221535,954.8066,-105.93577,959.8021,-103.794716,962.6575C-101.65363,965.51196,-96.65806,966.22626,-93.8027,964.08514L-23.146847,906.98944C-21.719173,905.5617,-20.292355,903.4207,-20.292347,901.2796C-20.292347,899.1385,-21.005726,896.99744,-23.14684,895.56976L-86.66594,844.18365L-23.14677,792.7977C-21.71909,791.37006,-20.29227,789.22894,-20.29227,787.0879C-20.29227,784.9469,-21.00568,782.8058,-23.146763,781.37805L-86.66586,729.9921L-21.719837,671.46954C-18.865368,668.6152,-18.865368,664.33295,-21.00642,661.4776C-22.43327,659.3365,-24.574352,658.6231,-26.715427,658.6231 Z"/>
</g>
<g style="fill:rgb(53,89,113); fill-opacity:1.0; stroke-linejoin: miter">
<path d="M-62.634094,673.4556L-62.634094,673.4566 Z"/>
</g>
</g>
<g style="fill:rgb(53,89,113); fill-opacity:1.0; stroke-linejoin: miter">
<path d="M-130.9681,935.3814L-49.315098,935.3819L32.337883,935.3824Q32.337875,1062.1648,32.337868,1188.947Q-49.315113,1188.9475,-130.96811,1188.948Q-130.9681,1062.1648,-130.9681,935.3814"/>
</g>
<g style="fill:rgb(165,179,188); fill-opacity:1.0; stroke-linejoin: miter">
<path d="M-109.0781,955.5796L-47.653492,955.5801L13.771126,955.58057Q13.771119,1067.906,13.771115,1180.2314Q-47.653507,1180.2318,-109.07812,1180.2323Q-109.0781,1067.906,-109.0781,955.5796"/>
</g>
<g style="fill:rgb(202,230,249); fill-opacity:1.0; stroke-linejoin: miter">
<path d="M-97.50512,969.5871L-48.098522,969.5876L1.308075,969.588Q1.3080673,1010.19135,1.3080683,1050.7947Q-48.09853,1050.7952,-97.50512,1050.7957Q-97.50512,1010.19135,-97.50512,969.5871"/>
</g>
<g style="fill:rgb(201,214,222); fill-opacity:1.0; stroke-linejoin: miter">
<path d="M11.395454,639.289L302.51453,639.289L302.5145,846.3774L11.395429,846.3775L11.395454,639.289 Z M11.395454,639.289L302.51453,639.289L302.5145,846.3774L11.395429,846.3775L11.395454,639.289 Z M11.395454,639.289L302.51453,639.289L302.5145,846.3774L11.395429,846.3775L11.395454,639.289 Z M11.395454,639.289L302.51453,639.289L302.5145,846.3774L11.395429,846.3775L11.395454,639.289 Z"/>
</g>
<g style="fill:rgb(166,183,194); fill-opacity:1.0; stroke-linejoin: miter">
<path d="M9.087315,644.79254L9.087315,607.97833C9.087315,602.89264,13.247096,598.73285,18.33267,598.73285L295.57092,598.73364C300.65646,598.73285,304.81625,602.8926,304.81622,607.97833L304.81622,644.79254L9.087315,644.79333L9.087315,644.79254 Z"/>
</g>
<g style="fill:rgb(34,43,50); fill-opacity:1.0; stroke-linejoin: miter">
<path d="M48.087505,621.41547C48.087505,625.75806,44.56713,629.27856,40.224487,629.27856C35.881844,629.27856,32.36142,625.75806,32.361427,621.41547C32.361427,617.0728,35.88185,613.5524,40.224495,613.5524C44.56714,613.5524,48.087505,617.0728,48.087505,621.41547 Z"/>
</g>
<g style="fill:rgb(34,43,50); fill-opacity:1.0; stroke-linejoin: miter">
<path d="M68.899185,621.4155C68.899185,625.7581,65.37875,629.27856,61.036144,629.27856C56.693535,629.27856,53.1731,625.7581,53.1731,621.4155C53.173103,617.0729,56.69354,613.5525,61.036148,613.5525C65.37875,613.5525,68.89919,617.0729,68.899185,621.4155 Z"/>
</g>
<g style="fill:rgb(34,43,50); fill-opacity:1.0; stroke-linejoin: miter">
<path d="M89.76232,621.4155C89.76232,625.7581,86.24192,629.27856,81.89927,629.27856C77.556625,629.27856,74.036224,625.7581,74.036224,621.4155C74.036224,617.0729,77.556625,613.5525,81.89927,613.5525C86.24192,613.5525,89.76232,617.0729,89.76232,621.4155 Z"/>
</g>
<g style="fill:rgb(81,101,107); fill-opacity:1.0; stroke-linejoin: miter">
<path d="M148.83603,567.4364L152.12343,567.4365L155.41084,567.43665Q155.41084,590.3394,155.41084,613.2422Q152.12343,613.2423,148.83603,613.24243Q148.83603,590.3394,148.83603,567.4364"/>
</g>
<g style="fill:rgb(44,60,66); fill-opacity:1.0; stroke-linejoin: miter">
<path d="M68.431305,1195.5515L-138.54048,1195.5525C-142.82271,1195.5518,-145.67723,1192.6973,-145.67723,1188.4152C-145.67723,1184.1328,-142.82271,1181.2782,-138.54048,1181.2781L68.431305,1181.2789C72.71347,1181.2782,75.56795,1184.1327,75.56795,1188.4148C75.56794,1192.697,72.71347,1195.5515,68.431305,1195.5515 Z"/>
</g>
</g>
</svg>